<?xml version="1.0" standalone="no"?>
<!DOCTYPE svg PUBLIC "-//W3C//DTD SVG 20010904//EN"
 "http://www.w3.org/TR/2001/REC-SVG-20010904/DTD/svg10.dtd">
<svg version="1.0" xmlns="http://www.w3.org/2000/svg"
 width="397.000000pt" height="629.000000pt" viewBox="0 0 397.000000 629.000000"
 preserveAspectRatio="xMidYMid meet">

<g transform="translate(0.000000,629.000000) scale(0.100000,-0.100000)"
fill="#FFFFFF" stroke="none">
<path d="M681 6264 c-94 -25 -151 -68 -353 -264 -214 -208 -267 -275 -300
-383 -39 -131 -26 -261 40 -392 33 -65 103 -138 1044 -1074 l1009 -1004 -1009
-1011 c-627 -628 -1019 -1028 -1035 -1056 -90 -157 -94 -342 -11 -500 31 -59
69 -103 240 -272 112 -111 224 -215 249 -230 104 -65 243 -90 361 -65 160 34
101 -19 1184 1062 542 540 1149 1144 1349 1341 200 198 383 387 407 420 24 34
56 92 71 130 22 59 27 85 27 174 1 126 -16 188 -74 277 -55 84 -2735 2752
-2812 2799 -29 19 -80 40 -113 49 -74 19 -202 18 -274 -1z"/>
</g>
</svg>
