<svg id="SvgjsSvg1001" width="288" height="288" xmlns="http://www.w3.org/2000/svg" version="1.1" xmlns:xlink="http://www.w3.org/1999/xlink" xmlns:svgjs="http://svgjs.com/svgjs">
    <defs id="SvgjsDefs1002"></defs>
    <g id="SvgjsG1008">
        <svg  class="main-color" xmlns="http://www.w3.org/2000/svg" width="288" height="288" version="1.0" viewBox="0 0 512 512">
            <path d="M2085 4474 c-709 -76 -1277 -596 -1417 -1297 -32 -161 -32 -433 0-594 64 -320 215 -605 439 -829 230 -230 503 -376 833 -445 154 -33 439 -33 597 -1 180 36 371 108 507 191 37 22 71 41 74 41 4 0 198 -191 432 -423 483 -481 471 -472 610 -471 100 0 160 24 225 89 65 65 89 125 89 225 0 141 10 128 -473 613 -411 412 -425 428 -412 450 107 169 183 359 223 562 32 157 32 431 0 592 -129 648 -623 1144 -1267 1273 -98 20 -368 34 -460 24z m325 -489 c235 -35 449 -144 620 -315 333 -333 423 -838 225 -1258 -62 -131 -127 -224 -225 -322 -333 -332 -838 -423 -1256 -226 -348 165 -583 476 -639 846 -73 477 164 942 594 1164 213 110 443 148 681 111z" transform="matrix(.1 0 0 -.1 0 512)" fill="currentColor" class="color000 svgShape"></path>
        </svg>
    </g>
</svg>