<?xml version="1.0" standalone="no"?>
<!DOCTYPE svg PUBLIC "-//W3C//DTD SVG 20010904//EN"
 "http://www.w3.org/TR/2001/REC-SVG-20010904/DTD/svg10.dtd">
<svg version="1.0" xmlns="http://www.w3.org/2000/svg"
 width="1600.000000pt" height="1600.000000pt" viewBox="0 0 1600.000000 1600.000000"
 preserveAspectRatio="xMidYMid meet">

<g transform="translate(0.000000,1600.000000) scale(0.100000,-0.100000)"
fill="#000000" stroke="none">
<path d="M7111 14164 c-199 -44 -350 -183 -418 -384 -17 -53 -18 -150 -23
-2250 l-5 -2195 -2195 -5 c-2100 -5 -2197 -6 -2250 -23 -152 -51 -273 -153
-335 -281 -66 -137 -66 -141 -63 -937 l3 -714 28 -80 c16 -44 42 -101 58 -126
47 -74 140 -156 221 -194 145 -69 -14 -65 2375 -65 l2163 0 2 -2198 3 -2197
27 -74 c52 -143 144 -248 273 -312 141 -70 151 -70 941 -66 635 3 704 5 759
21 189 56 325 190 391 386 18 53 19 139 22 2247 l2 2193 2193 2 c2108 3 2194
4 2247 22 196 66 330 202 386 391 16 55 18 124 21 759 4 791 4 800 -67 942
-71 146 -214 255 -378 289 -57 12 -394 15 -2234 15 l-2168 0 -2 2193 -3 2192
-28 78 c-63 180 -174 291 -352 354 l-80 28 -725 2 c-594 1 -737 -1 -789 -13z"/>
</g>
</svg>
